# xmcd
#
# Track frame offsets: 
#        150
#        35555
#        55413
#        80578
#        94124
#        111041
#        126108
#        155718
#        170818
#        198862
#        217953
#        228972
#        240599
#
# Disc length: 3656 seconds
#
# Revision: 0
# Processed by: cddbd v1.5.2PL0 Copyright (c) Steve Scherf et al.
# Submitted via: ExactAudioCopy v1.1
#
DISCID=ae0e460d
DTITLE=Climax Chicago Blues Band - The Climax Blues Band Plays On
DYEAR=2013
DGENRE=Blues
TTITLE0=Flight
TTITLE1=Hey Baby, Everything's Gonna Be Alright, Yeh Yeh Yeh
TTITLE2=Cubano Chant
TTITLE3=Little Girl
TTITLE4=Mum's The Word
TTITLE5=Twenty Past Two - Temptation Rag
TTITLE6=So Many Roads
TTITLE7=City Ways
TTITLE8=Crazy 'Bout My Baby
TTITLE9=Like Uncle Charlie
TTITLE10=Loving Machine
TTITLE11=Dance Of The Mountain King's Daughter
TTITLE12=Flight (First Mix)
EXTD=
EXTT0=
EXTT1=
EXTT2=
EXTT3=
EXTT4=
EXTT5=
EXTT6=
EXTT7=
EXTT8=
EXTT9=
EXTT10=
EXTT11=
EXTT12=
PLAYORDER=
